<?xml version="1.0" encoding="UTF-8"?>
<svg id="Layer_2" data-name="Layer 2" xmlns="http://www.w3.org/2000/svg" viewBox="0 0 310.82 146.22">
  <defs>
    <style>
      .cls-1 {
        fill: #2fadc1;
      }
    </style>
  </defs>
  <g id="Layer_1-2" data-name="Layer 1">
    <g>
      <path class="cls-1" d="M271.95,53.96c-7.95-6.94-19.18-10.42-33.69-10.42-8.01,0-15.74,1.03-23.18,3.1-6.46,1.79-12.14,4.36-17.05,7.71V5.63h-23.27v51.35c-2.83-3.22-6.08-5.85-9.76-7.9-6.64-3.69-14.14-5.54-22.52-5.54-9.64,0-18.3,2.13-26,6.38-7.7,4.25-13.74,10.2-18.11,17.83-1.68,2.92-3.04,6.05-4.07,9.38v-32.47h-23.46v87.8l-3.82-9.72c-3.51,2.75-7.88,4.13-13.14,4.13-4.38,0-7.79-1.32-10.23-3.94-2.44-2.62-3.66-6.32-3.66-11.07v-48.43h22.61v-18.77h-22.61v-22.15h-23.46v22.15H0v18.77h16.52v48.99c0,11.14,3,19.55,9.01,25.25,6.01,5.69,14.51,8.54,25.53,8.54,4.25,0,8.38-.56,12.39-1.69,2.76-.78,5.22-1.82,7.39-3.14v3.51h23.46v-32.47c1.03,3.33,2.39,6.46,4.07,9.38,4.38,7.64,10.42,13.61,18.11,17.93,7.7,4.32,16.36,6.48,26,6.48,8.63,0,16.26-1.88,22.9-5.63,3.95-2.24,7.39-5.15,10.32-8.74v13.06h22.33v-12.38c3.02,4.16,7.17,7.44,12.45,9.84,5.63,2.57,12.2,3.85,19.71,3.85,8.88,0,16.24-1.62,22.06-4.88,4.01-2.24,7.17-5.1,9.48-8.58v12.15h22.15v-58.75c0-14.52-3.97-25.25-11.92-32.19ZM171.1,111.49c-2.69,4.76-6.26,8.39-10.7,10.89-4.44,2.51-9.48,3.75-15.11,3.75s-10.67-1.25-15.11-3.75c-4.45-2.5-8.01-6.13-10.7-10.89-2.69-4.75-4.03-10.32-4.03-16.71s1.34-12.1,4.03-16.8c2.69-4.69,6.26-8.29,10.7-10.79,4.44-2.5,9.48-3.75,15.11-3.75s10.67,1.25,15.11,3.75c4.44,2.51,8.01,6.1,10.7,10.79,2.69,4.69,4.04,10.29,4.04,16.8s-1.35,11.95-4.04,16.71ZM260.41,113.56c-2,5.13-5.29,9.01-9.85,11.64-4.57,2.63-9.73,3.94-15.49,3.94s-10.7-1.25-14.08-3.75c-3.38-2.5-5.07-5.88-5.07-10.14,0-3.75,1.38-6.91,4.13-9.48,2.75-2.56,8.13-3.85,16.14-3.85h24.22v11.64ZM260.41,86.34h-25.9c-10.14,0-18.27,1.32-24.4,3.94-5.32,2.28-9.34,5.26-12.07,8.96v-39.23l7,13c3.75-3.13,8.35-5.57,13.8-7.32,5.45-1.75,10.98-2.63,16.61-2.63,8.38,0,14.64,1.91,18.77,5.72,4.13,3.82,6.2,9.17,6.2,16.05v1.5Z"/>
      <path class="cls-1" d="M93.45,3.85c-2.82-2.56-6.42-3.85-10.79-3.85s-7.98,1.35-10.8,4.03c-2.81,2.69-4.22,6.04-4.22,10.04s1.41,7.2,4.22,9.95c2.82,2.75,6.41,4.13,10.8,4.13s8.13-1.41,10.88-4.22c2.75-2.82,4.13-6.29,4.13-10.42,0-3.88-1.41-7.1-4.22-9.67Z"/>
      <path class="cls-1" d="M287.36,144.91V5.63h23.46v139.28h-23.46Z"/>
    </g>
  </g>
</svg>